<?xml version="1.0" encoding="UTF-8"?>
<svg id="Layer_2" data-name="Layer 2" xmlns="http://www.w3.org/2000/svg" viewBox="0 0 500 500">
  <defs>
    <style>
      .cls-1 {
        fill: #357c31;
      }

      .cls-1, .cls-2, .cls-3, .cls-4, .cls-5, .cls-6, .cls-7, .cls-8, .cls-9 {
        stroke-width: 0px;
      }

      .cls-2 {
        fill: #ffd500;
      }

      .cls-4 {
        fill: #3da9f9;
      }

      .cls-5 {
        fill: #408733;
      }

      .cls-6 {
        fill: #fff;
      }

      .cls-7 {
        fill: #ea4b4b;
      }

      .cls-8 {
        fill: #767576;
      }

      .cls-9 {
        fill: #566734;
      }
    </style>
  </defs>
  <g id="BACKGROUND">
    <rect class="cls-4" width="500" height="500"/>
  </g>
  <g id="OBJECTS">
    <g>
      <path class="cls-7" d="M31.71,423.43c2.15,1.75,5.26,1.62,8.05,1.39,20.13-1.61,40.26-3.23,60.39-4.84,1.88-.15,4-.43,5.1-1.93,1.96-2.67-1.08-6.19-4.1-7.65-7.43-3.59-16.1-3.56-24.37-3.07-8.41.5-16.79,1.39-25.11,2.67-6.24.96-14.61,1.22-19.55,5.65-1.56,1.4-2.57,3.59-1.95,5.57.27.87.83,1.64,1.54,2.22Z"/>
      <path class="cls-7" d="M113.94,430.29c-.58-1.14-1.8-1.82-3-2.33-4.91-2.1-10.38-2.49-15.73-2.57-11.63-.16-23.23,1.08-34.69,2.91-10.15,1.62-22.19,2.48-31.76,6.14-.74.28-1.58.72-1.69,1.49-.07.49.19.96.48,1.37,2.68,3.74,8.06,4.19,12.73,4.29,11.18.24,22.36.48,33.54.43,11.85-.05,23.98-.47,35-4.73,3.08-1.19,6.61-4.09,5.13-7Z"/>
    </g>
    <g>
      <path class="cls-2" d="M133.29,432.47c-1.53-2.15-4.45-3.59-6.94-2.62-5.35,2.07-2.93,8.15-3.13,12.23-.34,7.04-1.77,14.01-2.33,21.04-.72,8.93-.27,18.25,3.83,26.26,1.59,3.11,4.77,6.35,8.15,5.26,3.09-1,3.92-4.83,4.17-8.01,1.23-15.56.75-31.24-1.41-46.7-.36-2.6-.81-5.29-2.34-7.44Z"/>
      <path class="cls-2" d="M157.24,436.57c-.77-3.59-2.05-8.14-6.49-8.53-3.58-.32-5.05,2.14-5.77,5.19-2.23,9.43-.49,21.38.62,30.89.86,7.33,2.25,14.73,5.7,21.28.87,1.65,2.16,3.43,4.06,3.55,1.02.06,2-.39,2.82-.98,3.9-2.79,4.59-8.15,4.58-12.88-.02-12.99-2.78-25.82-5.52-38.53Z"/>
    </g>
    <path class="cls-2" d="M23.61,272.53c1.01,2.34,1.44,4.87,1.67,7.4.48,5.3.08,10.66.63,15.96.55,5.3,2.19,10.74,6.05,14.49,2.88,2.81,6.78,4.44,10.76,5.23,8.01,1.58,16.85-.33,22.89-5.7,6.05-5.38,8.82-14.3,6.08-21.83-1.24-3.41-3.51-6.51-3.95-10.1-.56-4.58,1.96-8.92,4.2-12.98,5.08-9.24,9.14-20.55,4.38-29.96-1.57-3.11-4.35-5.93-7.86-6.39-2.64-.34-5.29.67-7.94.43-9.59-.89-13.64-14.84-24.64-12.62-9.13,1.84-17.43,11.56-20.46,19.69-3.39,9.1-2.3,19.68,2.87,27.93,1.77,2.83,4,5.41,5.32,8.47Z"/>
    <path class="cls-6" d="M228.46,260.98c-6.67-6.15-17.19-6.54-24.32-12.17-3.1-2.44-5.38-5.75-8.44-8.24-4.92-4.02-11.78-5.66-18.04-4.3-6.26,1.36-11.77,5.68-14.5,11.36-.98,2.05-1.64,4.28-3.02,6.1s-3.82,3.14-6,2.39c-1.2-.41-2.1-1.37-2.86-2.37-6.9-9.01-3.67-23.71,6.4-29.15,8.99-4.86,20.04-2.43,30.18-.87,10.15,1.56,22.25,1.35,28.51-6.62,6.14-7.81,3.37-19.4-2.3-27.54-8.29-11.92-22.26-19.89-36.95-21.07-11.19-.9-22.62,2.16-31.93,8.28l.44-.37c-18.76,10.41-33.53,27.55-40.85,47.41-6.24,16.95-7.1,35.63-3.45,53.29,2.72,13.18,8.02,26.06,16.97,36.26s21.79,17.49,35.5,18.23c10.65.57,21.12-2.72,30.9-6.89,12.61-5.38,24.62-12.34,34.76-21.45,6.1-5.48,11.63-11.96,14-19.72,2.38-7.76,1.03-17.01-5-22.56Z"/>
    <path class="cls-7" d="M247.65,309.06c-9.33,0-18.66-2.61-26.52-7.55-7.19-4.52-11.62-10.39-12.48-16.53-1.22-8.79,4.72-16.19,8.37-19.82l1.06,1.06-1.06-1.06c2.66-2.64,5.64-4.97,8.53-7.21,2.59-2.01,5.27-4.1,7.64-6.37,3.33-3.18,8.82-9.63,8.23-17.09-.33-4.12-2.4-7.89-4.59-11.88-2.53-4.6-5.15-9.36-4.91-14.78.25-5.85,3.77-10.82,7.52-15.33,4.84-5.81,12.35-13.64,21.66-14.63,7.91-.84,16.62,6.15,19.13,12.96,2.09,5.66,1.66,11.7,1.25,17.54l-.08,1.13c-.4,5.82-.56,11.93,2.2,17,1.32,2.42,3.23,4.47,5.26,6.64,1.53,1.63,3.11,3.32,4.44,5.21,5.5,7.83,6.51,19.14,2.85,31.83-2.28,7.88-5.63,14.68-9.96,20.2-7.36,9.39-18.42,15.94-30.32,17.97-2.71.46-5.46.69-8.22.69ZM262.45,180.81c-.34,0-.69.02-1.03.05-8.23.88-15.17,8.16-19.68,13.57-3.42,4.1-6.61,8.58-6.83,13.54-.2,4.58,2.1,8.77,4.54,13.21,2.25,4.09,4.58,8.33,4.95,13.09.51,6.44-2.73,13.36-9.14,19.49-2.48,2.38-5.22,4.51-7.87,6.57-2.82,2.19-5.73,4.46-8.26,6.97-5.54,5.5-8.27,11.8-7.51,17.28.98,7.08,7.38,12.07,11.1,14.41,9.55,6,21.45,8.35,32.63,6.44,11.18-1.91,21.56-8.06,28.47-16.86,4.09-5.22,7.27-11.67,9.44-19.18,1.97-6.84,4.28-19.73-2.42-29.28-1.21-1.72-2.65-3.26-4.17-4.89-2.06-2.21-4.2-4.49-5.7-7.25-3.14-5.78-2.97-12.65-2.56-18.64l.08-1.14c.39-5.52.79-11.24-1.07-16.29-1.98-5.36-8.76-11.07-14.97-11.07Z"/>
    <path class="cls-9" d="M60.92,390.13c-3.21,0-6.33-.31-9.33-.95-11.34-2.39-20.88-9.7-24.9-19.07-3.54-8.23-3.42-17.25.35-26.07,5.44-12.76,18.79-24.95,33.21-30.35,7.46-2.79,15.67-4.09,23.76-3.76,6.18.26,11.3,1.38,15.64,3.44h0c9.28,4.4,16.1,14.2,17.37,24.95,1.17,9.86-2.04,20.49-8.8,29.17-5.93,7.62-14.59,13.85-25.03,18.04-7.6,3.05-15.15,4.6-22.27,4.6ZM81.49,312.88c-6.91,0-13.84,1.24-20.2,3.62-13.7,5.13-26.36,16.67-31.5,28.72-3.49,8.17-3.6,16.15-.35,23.71,3.65,8.48,12.37,15.12,22.77,17.32,11.45,2.42,22.56-.57,29.86-3.5,9.95-3.99,18.17-9.9,23.78-17.1,6.28-8.06,9.26-17.89,8.19-26.97-1.16-9.76-7.31-18.63-15.68-22.6h0c-3.97-1.88-8.7-2.91-14.48-3.15-.79-.03-1.59-.05-2.38-.05Z"/>
    <path class="cls-6" d="M174.32,351.53c-3.26-2.64-7.79-3.09-12.02-3.14-11.48-.12-38.88.59-43.32,14.14-.76,2.31-.79,4.78-.82,7.2-.12,10.54-.22,21.26,2.72,31.39.92,3.16,2.29,6.44,5.08,8.25,2.35,1.53,5.32,1.76,8.14,1.85,10.43.35,20.9-.51,31.13-2.55,4.36-.87,9.09-2.23,11.53-5.88,1.85-2.76,1.97-6.26,2.03-9.56.16-8.26.32-16.51.48-24.77.12-6.09-.16-13.06-4.95-16.94Z"/>
    <path class="cls-5" d="M213.92,320.51c-2.9-2.18-6.11-4.4-9.77-4.4-6.87,0-10.88,7.31-13.97,13.32-3.65,7.1-8.11,13.81-13.28,19.94-3.53,4.19-7.56,8.48-8.27,13.87-1.08,8.21,6.45,15.59,14.66,17.56,8.74,2.1,17.49-.7,26.32,1.13,9.39,1.94,19.15,3.24,28.45-.02,10.22-3.59,18.48-14.84,14.63-24.77-1.47-3.79-4.42-6.82-7.35-9.68-9.87-9.64-20.37-18.65-31.43-26.96Z"/>
    <path class="cls-9" d="M227.69,482.29c-5.79,0-10.51-.85-14.64-2.61-4.65-1.99-8.98-5.32-13.64-10.51-4.86-5.4-8.93-11.43-12.12-17.92-1.76-3.59-3.75-8.35-3.41-13.32.35-5.16,3.06-10.26,8.29-15.58,1.3-1.32,2.75-2.65,4.58-3.4,6.34-2.62,10.87,1.54,14.51,4.88,1.05.96,2.04,1.87,3.04,2.61,6.05,4.51,12.17,1.97,19.51-3.25,4.14-2.94,8.4-5.97,13.62-6.6,6.71-.81,13.89,2.66,20.75,10.03,6.18,6.63,9.34,12.87,9.66,19.07h0c.22,4.28-.96,8.92-3.42,13.42-8.58,15.7-27.79,22.21-42.91,23.07-1.32.07-2.59.11-3.81.11ZM200.68,421.13c-.88,0-1.8.18-2.78.59-1.39.58-2.58,1.71-3.58,2.73-4.7,4.79-7.14,9.26-7.43,13.68-.29,4.26,1.51,8.54,3.11,11.8,3.06,6.24,6.99,12.04,11.66,17.24,4.35,4.84,8.35,7.94,12.58,9.75,4.56,1.95,9.99,2.67,17.11,2.26,14.31-.81,32.46-6.89,40.45-21.51,2.2-4.02,3.25-8.11,3.06-11.83h0c-.29-5.47-3.19-11.09-8.86-17.18-4.31-4.63-10.97-9.96-18.2-9.1-4.45.54-8.4,3.34-12.22,6.06-6.93,4.93-15.09,9.16-23.05,3.22-1.12-.83-2.21-1.84-3.27-2.81-2.73-2.5-5.35-4.9-8.56-4.9Z"/>
    <path class="cls-6" d="M329.97,242.39c-1.29-3.72-6.25-4.45-8.63-1.3-12.6,16.68-20.51,36.74-22.51,57.4-1.99,20.57,1.87,41.63,10.96,60.28,1.76,3.62,6.86,3.72,8.81.19,19.64-35.4,24.59-78.57,11.37-116.56Z"/>
    <path class="cls-7" d="M333.8,391.34c6.19-1.66,13.24,2.14,15.71,8.45,1.45,3.69,1.42,7.87,2.63,11.66,2.51,7.9,10.83,13.11,18.46,11.54,3.73-.77,7.08-2.9,10.4-4.89,7.74-4.64,16-8.78,24.84-9.53,8.83-.75,18.39,2.46,23.63,10.14,3.25,4.75,4.68,10.87,8.59,15.01,7.38,7.82,20.7,5.78,27.85,13.85,5.9,6.65,4.63,18.51-1.73,24.66-6.36,6.15-16.33,6.75-24.04,2.78-5.6-2.88-10.22-7.85-16.14-9.84-5.85-1.96-12.26-.73-17.95,1.7-5.69,2.43-10.9,5.99-16.4,8.89-4.26,2.25-9.71,4-13.47.88-2.7-2.25-3.51-6.28-5.79-9.02-3.33-4.01-9.04-4.45-13.98-3.57-6.63,1.18-12.85,4.17-19.34,6.03-6.49,1.86-13.71,2.51-19.68-.81-5.03-2.8-8.46-8.02-11.4-13.23-5.58-9.91-10.13-20.72-11.39-32.22-.4-3.59-.44-7.35.89-10.66,1.34-3.31,4.35-6.06,7.71-5.95,6.96.24,10.26,11.38,17.22,11.58,3.02.09,5.95-2.35,6.61-5.53,1.05-5.03-3.85-7.2-2.76-12.2,1.01-4.62,5.39-8.64,9.53-9.75Z"/>
    <path class="cls-1" d="M459.21,438.93c-7.67,0-15.42-2.88-20.96-7.16-6.11-4.71-10.11-10.79-11.28-17.11-1.1-5.96.28-11.84,1.62-17.53.26-1.1.51-2.2.75-3.29,1.13-5.2,2.21-12.76-1.47-18.23-.96-1.43-2.22-2.69-3.56-4.02-.87-.86-1.76-1.76-2.6-2.72-6.52-7.57-8.44-18.96-5.14-30.46h0c3.9-13.61,13.02-24.95,19.98-32.06.79-.81,1.62-1.62,2.45-2.43,2.82-2.75,5.73-5.59,7.54-8.87,2.52-4.56,1.21-5.86-2.29-9.35-.69-.69-1.43-1.42-2.18-2.23-5.28-5.72-4.74-15.47,1.18-21.29,5.19-5.1,13.83-6.81,21.51-4.24,6.53,2.18,12.39,7.19,16.49,14.12,3.84,6.47,5.74,13.69,7.09,19.9,7.98,36.57,4.11,74.95-.53,111.12-1.5,11.66-3.73,23.63-12.93,30.77-4.62,3.58-10.13,5.09-15.69,5.09ZM457.44,260.61c-4.4,0-8.6,1.51-11.46,4.32-4.39,4.32-4.89,11.76-1.05,15.91.71.77,1.41,1.46,2.06,2.12,3.54,3.52,6.88,6.85,2.94,13.96-2.09,3.77-5.21,6.82-8.22,9.76-.81.79-1.62,1.58-2.39,2.37-6.65,6.8-15.35,17.59-19.03,30.42h0c-2.89,10.09-1.23,20.39,4.36,26.87.74.86,1.54,1.66,2.4,2.51,1.41,1.4,2.86,2.85,4.03,4.59,4.51,6.7,3.33,15.32,2.05,21.21-.24,1.11-.5,2.23-.77,3.35-1.3,5.55-2.53,10.79-1.58,15.95.99,5.38,4.48,10.62,9.83,14.74,8.41,6.49,22.46,9.42,31.92,2.07,8.04-6.24,10.07-17.36,11.47-28.21,4.6-35.83,8.44-73.83.59-109.8-1.29-5.91-3.09-12.76-6.64-18.75-3.63-6.12-8.74-10.54-14.39-12.42-2-.67-4.08-.99-6.11-.99Z"/>
    <path class="cls-5" d="M275.29,244.38c2.27,10.97,11.86,20.37,23.21,21.74,9.49,1.14,20.26-2.72,28.05,2.7,2.77,1.93,4.68,4.79,7.03,7.19s5.53,4.48,8.9,4.06c2.03-.25,3.83-1.38,5.45-2.61,7.33-5.55,12.59-14.14,12.53-23.21s-6.21-18.19-15.18-20.47c-3.44-.88-7.06-.76-10.57-1.28-15.87-2.35-7.11-22.23-21.81-26.68-11.95-3.61-26.05,5.5-32.41,14.81-4.71,6.89-6.89,15.55-5.19,23.74Z"/>
    <path class="cls-2" d="M362.57,298.98c8.58-5.85,19.94-9.57,29.47-5.36,2.38,1.05,4.64,2.67,5.73,5,.69,1.47.86,3.1,1.03,4.71.54,5.2,1.08,10.41,1.62,15.61.14,1.38.3,2.8.93,4.04,1.31,2.56,4.31,3.78,6.3,5.88,4.15,4.35,3.13,11.3,1.14,16.92-1.99,5.62-4.73,11.53-3.15,17.28,1.61,5.88,7.5,10.33,7.76,16.42.2,4.77-3.33,9.09-7.64,11.34s-9.28,2.84-14.13,3.4c-1.53.18-3.15.34-4.55-.3-2.67-1.23-3.28-4.72-5.48-6.65-4.45-3.91-11.38.67-17.33.1-2.83-.27-5.4-1.75-7.7-3.39-9.87-7.04-16.8-17.91-18.94-29.68-3.93-21.61,6.98-43.07,24.93-55.31Z"/>
    <path class="cls-2" d="M266.77,355.94c3.31,2.27,7.24,4.01,11.26,3.7,4.9-.38,9.06-3.7,12.18-7.42,8.7-10.38,13.16-32.9-2.84-39.66-12.52-5.29-24.44,8.74-28.13,18.84-3.55,9.72-1.22,18.55,7.52,24.54Z"/>
    <path class="cls-7" d="M444.44,208.93c7.43.88,14.94,2.68,21.14,6.79,5.57,3.7,9.76,9.04,13.63,14.43,4.13,5.74,8.11,11.82,9.66,18.68,2.29,10.19-1.29,21.24-8.46,28.96-7.18,7.71-17.62,12.17-28.24,13.07-2.98.25-6.04.23-8.88-.65-3.23-1.01-6-3.07-8.63-5.16-13.22-10.52-25.18-23.09-40.74-29.88-6.57-2.87-14.32-5.2-17.49-11.52-6.06-12.08,7.34-24.43,17.83-28.19,16.04-5.74,33.15-8.54,50.18-6.53Z"/>
    <g>
      <path class="cls-6" d="M214.97,33.52c2.93-3.78,5.92-7.51,8.93-11.22-.37.04-.75.08-1.14.11-5.18,2.13-10.15,6.9-13.55,11.16-4.85,6.07-10.6,14.75-11.43,22.79-.08.76-.14,1.51-.19,2.26,2.23-3.58,4.48-7.14,6.82-10.64,3.32-4.97,6.89-9.74,10.55-14.46Z"/>
      <path class="cls-6" d="M223.33,58.84c4.01-5.26,7.78-10.67,11.65-16.02,4.93-6.83,9.97-13.57,15.01-20.32-2.31-.97-4.71-1.7-7.11-2.14-.74.97-1.49,1.94-2.23,2.9-13.87,17.95-28.21,35.66-39.86,55.15.99,2.1,2.23,4.11,3.75,6.02,2.25-3.51,4.65-6.93,7.13-10.28,3.81-5.16,7.78-10.2,11.66-15.3Z"/>
      <path class="cls-6" d="M246.99,47.83c4.63-5.92,9.29-11.82,13.92-17.74-2.12-2.36-4.76-4.39-7.69-6.01-1.49,2-2.99,4-4.48,6-8.01,10.75-15.61,21.79-23.77,32.43-6.21,8.09-12.59,16.13-18.02,24.77,1.97,2.22,4.08,4.31,6.46,6.06,2.88-4.31,5.82-8.57,8.83-12.78,7.95-11.13,16.31-21.96,24.74-32.74Z"/>
      <path class="cls-6" d="M258.3,56.06c3.46-4.1,6.95-8.18,10.39-12.29-1.39-3.73-3.25-7.36-5.55-10.79-.67.86-1.34,1.73-2.02,2.59-8.42,10.74-16.91,21.43-25.13,32.32-6.76,8.95-13.34,18.04-19.57,27.37.4.22.8.43,1.21.63,2.48,1.17,5.19,1.74,7.97,2,2.97-3.75,5.89-7.54,8.79-11.35,7.83-10.28,15.59-20.59,23.92-30.47Z"/>
      <path class="cls-6" d="M269.97,47.76c-7.6,9.07-15.28,18.04-22.5,27.42-5.86,7.62-11.61,15.33-17.53,22.9,2.5.01,4.98-.1,7.36-.15,1.52-.03,2.99-.14,4.4-.32,1.3-1.78,2.59-3.56,3.89-5.33,8.51-11.53,17.24-22.9,25.98-34.26-.13-3.45-.67-6.88-1.6-10.26Z"/>
      <path class="cls-6" d="M263.82,83.98c4.41-6.23,6.85-13.02,7.57-19.92-8.27,10.78-16.52,21.57-24.56,32.52,6.8-1.93,12.31-5.98,16.98-12.6Z"/>
      <path class="cls-6" d="M238.78,19.89c-.67-.03-1.34-.04-2-.01-2.49.09-4.75.8-7.53,1.46-.63.77-1.26,1.53-1.88,2.29-7.46,9.17-14.85,18.43-21.33,28.34-2.89,4.42-5.67,8.92-8.46,13.4.2,3.02.7,5.98,1.58,8.82,1.82-2.98,3.71-5.92,5.64-8.82,10.5-15.76,22.42-30.49,33.98-45.48Z"/>
    </g>
    <g>
      <path class="cls-8" d="M68.29,51.63c7.42-9.41,14.84-18.81,22.27-28.22,2.2-2.79-3.36-3.07-4.76-1.29-7.42,9.41-14.84,18.81-22.27,28.22-2.2,2.79,3.36,3.07,4.76,1.29Z"/>
      <path class="cls-8" d="M85.92,41.95c6.94-7.85,13.88-15.69,20.82-23.54,2.29-2.59-3.34-2.62-4.7-1.08-6.94,7.85-13.88,15.69-20.82,23.54-2.29,2.59,3.34,2.62,4.7,1.08Z"/>
      <path class="cls-8" d="M68.86,64.49c4.41-5.42,8.81-10.84,13.22-16.26,2.35-2.89-3.15-4.04-4.92-1.87-4.41,5.42-8.81,10.84-13.22,16.26-2.35,2.89,3.15,4.04,4.92,1.87Z"/>
      <path class="cls-8" d="M94.46,37.47c-6.51,6.51-12.3,13.62-17.39,21.3-1.61,2.44,4.28,2.19,5.49.37,4.87-7.35,10.43-14.13,16.66-20.37,2.48-2.49-3.18-2.88-4.76-1.3Z"/>
      <path class="cls-8" d="M103.24,32.61c1.21.03,3.11-.47,3.86-1.54,2.52-3.63,5.37-6.98,8.61-9.99.88-.82.67-1.6-.5-1.87-1.23-.28-3.19.24-4.12,1.1-3.51,3.26-6.65,6.83-9.38,10.76-.77,1.11.67,1.5,1.53,1.53Z"/>
      <path class="cls-8" d="M70.6,74.89c2.69-3.39,5.37-6.78,8.06-10.17.87-1.1-.74-1.6-1.56-1.63-1.33-.05-3,.5-3.85,1.57-2.69,3.39-5.37,6.78-8.06,10.17-.87,1.1.74,1.6,1.56,1.63,1.33.05,3-.5,3.85-1.57Z"/>
      <path class="cls-8" d="M87.78,59.57c-5.86,7.52-11.71,15.03-17.57,22.55-2.27,2.92,3.23,3.88,4.88,1.75,5.86-7.52,11.71-15.03,17.57-22.55,2.27-2.92-3.23-3.88-4.88-1.75Z"/>
      <path class="cls-8" d="M94.84,56.5c1.33.01,2.98-.49,3.86-1.55,1.48-1.79,2.96-3.58,4.44-5.37.88-1.06-.75-1.54-1.54-1.55-1.33-.01-2.98.49-3.86,1.55-1.48,1.79-2.96,3.58-4.44,5.37-.88,1.06.75,1.54,1.54,1.55Z"/>
      <path class="cls-8" d="M108.03,43.7c2.64-3.59,5.6-6.9,8.87-9.92,1.01-.94.43-2.22-.71-2.63-1.41-.52-3.08.14-4.12,1.1-3.27,3.02-6.23,6.33-8.87,9.92-2.16,2.93,3.35,3.54,4.83,1.53Z"/>
      <path class="cls-8" d="M117.62,30.03c1.44.56,3.11-.03,4.12-1.1,1.5-1.59,2.99-3.18,4.49-4.77.96-1.02.42-2.5-.8-2.97-1.44-.56-3.11.03-4.12,1.1l-4.49,4.77c-.96,1.02-.42,2.5.8,2.97Z"/>
      <path class="cls-8" d="M119.46,44c1.34.01,2.93-.52,3.87-1.51,4.21-4.4,7.97-9.15,11.3-14.26,1.3-1.99-4.45-1.29-5.36.12-3.33,5.1-7.09,9.85-11.3,14.26-.96,1.01.83,1.38,1.49,1.39Z"/>
      <path class="cls-8" d="M105.22,63.73c4.39-4.97,8.77-9.94,13.16-14.91,2.43-2.76-3.12-3.76-4.89-1.75-4.39,4.97-8.77,9.94-13.16,14.91-2.43,2.76,3.12,3.76,4.89,1.75Z"/>
      <path class="cls-8" d="M92.51,75.17c1.14-.22,2.65-.57,3.44-1.49,1.6-1.86,3.2-3.72,4.81-5.59.61-.71-2.15-.41-2.28-.39-1.14.22-2.65.57-3.44,1.49-1.6,1.86-3.2,3.72-4.81,5.59-.61.71,2.15.41,2.28.39Z"/>
      <path class="cls-8" d="M93.03,78.08c1-.92-.88-1.11-1.41-1.1-1.31.04-2.9.53-3.89,1.43-4.1,3.77-7.94,7.79-11.5,12.08-.83,1,.73,1.12,1.41,1.1,1.16-.04,3.09-.47,3.89-1.43,3.56-4.28,7.4-8.31,11.5-12.08Z"/>
      <path class="cls-8" d="M106.61,69.08c-7.34,8.84-14.69,17.67-22.03,26.5-1.62,1.95,4.21,1.58,5.42.12,7.34-8.83,14.69-17.67,22.03-26.5,1.62-1.95-4.21-1.58-5.42-.12Z"/>
      <path class="cls-8" d="M112.22,66.08c1.32.48,3.2-.05,4.12-1.1,2.44-2.8,4.88-5.6,7.32-8.41.88-1.02.52-2.25-.72-2.7-1.32-.48-3.2.05-4.12,1.1-2.44,2.8-4.88,5.6-7.32,8.41-.88,1.02-.52,2.25.72,2.7Z"/>
      <path class="cls-8" d="M124.41,48.12c-2.3,2.93,3.18,4.07,4.92,1.87,3.63-4.62,7.57-8.97,11.86-12.98,2.87-2.69-1.68-4.93-3.91-2.84-4.64,4.33-8.94,8.96-12.86,13.95Z"/>
      <path class="cls-8" d="M123.28,61.57c-2.33,2.6,3.3,2.77,4.73,1.17,5.44-6.07,10.88-12.14,16.31-18.22,2.33-2.6-3.3-2.77-4.73-1.17-5.44,6.07-10.88,12.14-16.31,18.22Z"/>
      <path class="cls-8" d="M111.41,79.63c1.3.52,3.24-.02,4.12-1.1,2.51-3.1,5.02-6.2,7.53-9.3.87-1.07.5-2.33-.76-2.83-1.3-.52-3.24.02-4.12,1.1-2.51,3.1-5.02,6.2-7.53,9.3-.87,1.07-.5,2.33.76,2.83Z"/>
      <path class="cls-8" d="M112.32,82.65c-1.11.05-3.1.48-3.91,1.37-4.82,5.3-9.45,10.75-13.88,16.38-.62.79,2.15.51,2.31.48,1.14-.2,2.67-.58,3.43-1.54,4.28-5.44,8.74-10.71,13.4-15.83.85-.93-.77-.88-1.35-.86Z"/>
      <path class="cls-8" d="M124.88,78.52c-5.58,5.85-10.6,12.15-15.08,18.87-1.66,2.48,4.25,2.32,5.51.44,4.27-6.39,9.06-12.35,14.37-17.91,2.46-2.58-3.18-3.08-4.79-1.4Z"/>
      <path class="cls-8" d="M142.35,56.82c-3.99,4.61-7.98,9.23-11.97,13.84-2.27,2.62,3.35,2.64,4.7,1.08,3.99-4.61,7.98-9.23,11.97-13.84,2.27-2.62-3.35-2.64-4.7-1.08Z"/>
      <path class="cls-8" d="M128.06,90.57c-1.34.06-2.93.48-3.87,1.5-1.22,1.31-2.43,2.62-3.65,3.93-.92.99.79,1.38,1.48,1.35,1.34-.06,2.93-.48,3.87-1.5,1.22-1.31,2.43-2.62,3.65-3.93.92-.99-.79-1.38-1.48-1.35Z"/>
      <path class="cls-8" d="M140.8,70.45c-3.34,4.33-6.67,8.66-10.01,12.99-2.27,2.95,3.21,4.05,4.91,1.84,3.34-4.33,6.67-8.66,10.01-12.99,2.27-2.95-3.21-4.05-4.91-1.84Z"/>
    </g>
    <path class="cls-8" d="M369.6,81.98c-10.69,5.95-16.2,17.57-19.11,28.97-.52,2.05-.98,4.11-1.4,6.17-2.85-13.51,2.13-27.48,8.78-39.3,2.17-3.86,4.54-7.61,6.94-11.34.74-1.15-.68-2.32-1.77-1.77-17.56,8.94-27.9,27.38-30.88,46.35-.66,4.18-1,8.4-1.08,12.63-3.37-7.72-4.1-16.43-2.98-24.78,1.46-10.9,6.09-21.05,11.59-30.47,3.21-5.49,6.73-10.79,10.25-16.08.77-1.15-.7-2.31-1.77-1.77-20.5,10.31-33.66,31.19-36.68,53.64-.59,4.36-.81,8.75-.69,13.13-2.86-8.37-3.6-17.46-2.32-26.21,1.58-10.81,6.21-20.99,12.83-29.65,3.65-4.78,7.93-9.08,12.61-12.86,1.07-.86-.11-2.43-1.26-2.16-9.45,2.21-17.92,7.78-24.19,15.14-6.84,8.03-10.97,18.02-12.52,28.42-.57,3.85-.82,7.72-.77,11.6-3.7-11.04-2.58-23.39,3.38-33.59,1.95-3.34,4.36-6.36,7.16-9.03,1.21-1.15-.62-2.98-1.83-1.83-10.76,10.26-15.56,25.57-12.59,40.14.87,4.26,2.4,8.37,4.49,12.18.58,1.07,2.55.65,2.41-.65-1.15-10.64-.15-21.56,3.82-31.56,3.48-8.76,9.42-16.59,17.19-21.98,2.6-1.81,5.38-3.31,8.3-4.49-15.07,14.29-24.32,34.68-21.79,55.72.8,6.67,2.72,13.13,5.81,19.11.56,1.09,2.56.64,2.41-.65-1.42-11.9-.31-24.06,3.69-35.39,3.59-10.17,9.6-19.46,17.5-26.81,2.98-2.77,6.22-5.23,9.68-7.37-11.29,17.23-22.17,36.27-19.33,57.57.78,5.89,2.67,11.6,5.81,16.66.65,1.05,2.45.67,2.41-.65-.65-19.35,4.37-39.56,18.59-53.43,2.3-2.24,4.8-4.25,7.47-6-7.58,12.18-14.3,25.41-14.09,40.07.06,4.53.83,9.04,2.41,13.29.4,1.08,2.24,1.37,2.49,0,2.29-12.24,5.39-26.19,14.85-34.81-3.89,7.39-5.25,15.99-3.66,24.3.31,1.63,2.8.94,2.49-.69-1.85-9.68.72-20.09,6.91-27.77.88-1.09-.2-2.79-1.57-2.03Z"/>
    <g>
      <path class="cls-5" d="M46.22,151.87c3.51-.35,5.47-3.62,5.22-7.18-.07-.99-.89-4.03-1.66-4.97-1.19-1.45-3.04-1.22-6.47-2.32-2.58.05-4.33,4.49-4.69,6.41-.94,5.06,2.5,8.57,7.59,8.07Z"/>
      <path class="cls-5" d="M24.66,167.66c3.46-.98,5.26-5.47,5.91-8.6,1.27-6.13-5.03-11.3-10.24-6.68-4.09.47-4.14,9.6-2.92,12.02,1.19,2.37,4.63,4.01,7.25,3.26Z"/>
      <path class="cls-5" d="M31.4,144.45c6.93-3.47,12.75-19.76,2.94-17.69-2.15.42-3.73,2.92-5.28,4.58-2.02,2.18-4.9,4.54-5.38,7.83-.3,2.05.56,4.96,1.93,6.12,1.61,1.35,4,.05,5.78-.84Z"/>
      <path class="cls-5" d="M24.92,172.14c-3.49,1.86-1.98,9.39-.18,11.96,1.8,2.56,5.79,4.52,8.37,1.83,3.09-3.23,2.66-10.32-.59-13.28-2.93-2.68-4.5-1.72-7.59-.5Z"/>
      <path class="cls-5" d="M53.01,136.06c6.3,1.27,11.33-2.83,12.21-9.16.36-2.62-1.32-7.3-4.2-6.7-3.44-1.76-9.27.8-11.67,3.33-4.43,4.66-2.94,11.2,3.66,12.54Z"/>
      <path class="cls-5" d="M53.22,156.08c-3.03-.96-6.01-.7-9.91.56-2.31.73-4.14,3.3-5.07,5.35-2.39,5.28-.92,10.99,2.5,15.39,2.78,3.56,7.75,4.52,12.04,3.43,4.47-1.14,7.52-7,7.56-11.46.04-4.81-2.15-11.69-7.13-13.27Z"/>
      <path class="cls-5" d="M60.34,138.25c-2.16.44-3.3,3.54-3.56,5.48-.5,3.69.97,7.81,4.63,9.24,6.36,2.49,12.79-5.15,10.09-11.15-1.74-3.86-6.36-5.65-11.16-3.57Z"/>
      <path class="cls-5" d="M75.68,139.07c4.88,1.62,7.28-4.15,6.98-7.98-.25-3.2-4.31-8.28-7.67-6.12-5.96,1.24-4.33,12.44.69,14.11Z"/>
      <path class="cls-5" d="M76.52,149.15c-.19,4.74,1.85,9.82,7.67,11.05,6.62,1.4,11.74-4.6,11.91-10.71.11-3.89-1.02-6.52-4.18-8.77-6-4.26-13.99,2.4-15.4,8.42Z"/>
      <path class="cls-5" d="M68.86,158.51c-4.99-.18-5.97,10.36-4.66,13.51,2.86,6.88,10.49,6.82,14.44,1.18,5.32-7.61.02-17.31-9.77-14.69Z"/>
      <path class="cls-5" d="M48.77,184.04c-2.83-1.49-4.5-.31-8.01.18-1.8,1.86-4.04,3.27-4.27,6.19-.14,1.9,1.16,4.84,2.21,6.42,1.32,1.98,3.88,3.1,6.19,2.74,2.93-.46,4.57-1.32,6.35-3.68,1.82-2.42,3.15-4.97,1.47-7.94-.79-1.4-2.48-3.15-3.93-3.91Z"/>
      <path class="cls-5" d="M70.56,181.32c-2.12-1.55-6.22-2.85-8.17-1.52-2.54-1.19-4.84,4.78-5.23,6.4-.89,3.79-.48,8.2,2.18,11.24,2.26,2.59,5.35,2.72,8.5,2.08,3.37-.69,5.21-2.55,6.53-5.78,2.06-5.04.51-9.27-3.81-12.41Z"/>
      <path class="cls-5" d="M86.06,163.11c-4.21,1.72-4.37,9.24-1.86,12.28,3.86,4.67,10.13,1.81,12.24-2.82,2.64-5.79-4.18-12.89-10.38-9.46Z"/>
      <path class="cls-5" d="M79.75,178.44c-3.93.7-2.88,8.09-1.04,10.3,3.19,3.83,7.34.85,7.82-3.33.49-4.26-3.08-8.16-6.78-6.97Z"/>
    </g>
    <g>
      <path class="cls-2" d="M175.57,103.84c.65,9.29-.86,18.53-.34,27.84.25,4.59.46,9.16.5,13.75.04,4.51,1.04,8.92,1.2,13.42.15,4.22-.06,8.44-.16,12.65,0,.45-.06,1.03-.12,1.64,1.65.3,3.33.5,5.03.59-.05-1.71-.03-3.42-.19-4.93-.94-8.79-1.66-18.05-1.3-26.88.28-6.81,1.23-13.24.78-20.09-.29-4.43.05-8.93.05-13.38s.1-9.12.66-13.71c.13-1.05.16-2.09.14-3.13-1.97.1-3.9.35-5.78.71-.24,3.88-.74,7.56-.46,11.52Z"/>
      <path class="cls-2" d="M142.83,132.68c0,7.4,1.96,14.33,5.38,20.33-.23-6.11-.54-12.22-.8-18.34-.31-7.08-.05-14.14.18-21.2-3.03,5.73-4.76,12.27-4.76,19.21Z"/>
      <path class="cls-2" d="M159.81,165.97c-.04-1.05-.08-2.09-.08-3.11,0-7.33-.46-14.61-1.28-21.89-1.11-9.92-2.19-19.67-1.84-29.68.12-3.31.4-6.62.7-9.93-1.58,1.34-3.05,2.8-4.41,4.37.16,5.49.86,11.02,1.21,16.46.81,12.28-.79,24.48-1.86,36.71,2.21,2.67,4.75,5.04,7.55,7.08Z"/>
      <path class="cls-2" d="M192.43,164.66c0-9.8-.55-19.62-.33-29.42.14-6.37.89-12.58.55-18.97-.22-4.32-.57-8.63-.9-12.94-.28-3.68-.44-7.41-.57-11.12-1.63-.29-3.3-.49-4.99-.58,0,.66,0,1.31-.02,1.89-.43,8.88-.73,18.59,1.16,27.27,1.1,5.02.86,9.82.3,14.91-.68,6.22-.7,12.16-.64,18.41.06,5.33-1.04,10.65-.52,15.96.11,1.09.11,2.36.14,3.65,2.11-.13,4.17-.43,6.18-.87-.21-2.69-.36-5.39-.36-8.18Z"/>
      <path class="cls-2" d="M222.06,141.36c.32,2.4.15,4.72-.1,7.03,2-4.84,3.11-10.14,3.11-15.71,0-6.12-1.35-11.92-3.74-17.13-.08.96-.18,1.94-.3,2.93-.94,7.39.04,15.55,1.03,22.88Z"/>
      <path class="cls-2" d="M211.87,106.33c.24,3.53.9,6.91,1,10.49.11,3.97,0,7.66-.34,11.61-.85,9.68-1.3,19.1-.5,28.81.14,1.71.22,3.47.25,5.24,1.93-1.83,3.67-3.85,5.22-6.02-.02-.82-.03-1.65-.02-2.48.02-7.63-.31-15.22-.19-22.86.13-7.67-.49-15.35-.35-23.01-1.51-2.03-3.22-3.91-5.07-5.63-.06,1.28-.08,2.56,0,3.84Z"/>
      <path class="cls-2" d="M170.47,95.2c.07-.44.1-.92.12-1.41-1.48.51-2.93,1.09-4.33,1.76-1.16,10.29-2.97,20.59-1.77,30.95.47,4.01,1.31,7.96,1.19,12.02-.15,5.22-.46,10.45-.63,15.68-.16,4.97-.29,10.15.23,15.12,2.5,1.28,5.15,2.31,7.92,3.06-.18-2.75-.39-5.5-.49-8.24-.32-9.11-1.04-18.27-2.25-27.32-1.33-9.94-1.24-19.79-1.2-29.81.01-3.97.59-7.9,1.2-11.81Z"/>
      <path class="cls-2" d="M206.06,162.86c-.74-9.71.34-19.1,1.12-28.76.46-5.7.05-11.26-.94-16.87-.78-4.41-.57-8.97-.82-13.44-.12-2.11-.2-4.21-.19-6.31-1.53-.93-3.13-1.75-4.79-2.48.06,2.9-.02,5.62-.04,6.34-.35,10.09-1.29,20.31-.07,30.37,1.12,9.32,2.46,18.79.29,28.08-.87,3.72-1.36,7.24-.96,10.89,2.38-.98,4.64-2.19,6.76-3.58-.14-1.42-.26-2.84-.37-4.25Z"/>
    </g>
    <g>
      <path class="cls-6" d="M243.45,166.64c5.42-4.25,10.5-7.16,17.27-3.57,6.8,3.61,12.35,16.22,20.97,10.49,5.01-3.32,8.9-8.02,15.54-7.06,6.95,1.01,11.25,7.28,17.85,8.89.59-2.16,1.03-4.38,1.31-6.66-4.14-.22-8.2-1.32-11.77-3.57-1.83-1.15-3.38-2.9-5.33-3.83-2.93-1.4-5.53-.42-8.51.07-3.29.55-6.37.54-9.6-.36-8.12-2.27-14.82-9.04-23.69-6.18-8.41,2.71-14.91,4.59-23.64,1.58-2.59-.89-5.79-2.07-8.92-3.55-.54,2.41-.89,4.88-1.04,7.41,6.56,4.28,11.03,13.01,19.56,6.33Z"/>
      <path class="cls-6" d="M239.79,184.97c5.6-3.53,10.22-7.57,16.97-3.79,3.56,2,5.98,5.63,9.92,6.96,5.09,1.72,9.13-.31,13.32-3.09,5.76-3.81,11.22-6.02,18-3.45,4.02,1.52,7.65,4.48,11.52,6.32,1.19-1.87,2.24-3.82,3.15-5.86-3-.78-5.87-2.16-8.63-4.11-3.49-2.46-6.89-5.61-11.37-3.75-2.76,1.14-4.94,3.83-7.41,5.48-5.43,3.65-11.33,3.54-16.66-.31-3.16-2.28-5.41-5.44-8.33-7.98-5.4-4.7-8.8-1.87-13.47,1.58-5.65,4.17-12.38,4.69-18.25.56-1.49-1.05-2.87-2.6-4.3-4.06.87,6.32,3.01,12.24,6.16,17.49,3.19.39,6.43-.14,9.38-2Z"/>
      <path class="cls-6" d="M231.83,147.99c4.9,2.24,10.35,3.99,15.77,2.82,7.92-1.71,13.37-5.53,21.62-2.6,3.6,1.28,6.9,3.22,10.39,4.73,4.74,2.04,8.43,1.56,13.43.75,8.9-1.44,12.38,5.61,20.26,7.51,1.14.27,2.27.42,3.4.47-.07-2.47-.33-4.9-.78-7.26-3.84-.73-7.52-2.26-10.65-4.62-3.52-2.65-5.69-7.32-10.21-7.73-4.55-.41-8.74,3.46-13.18,4.41-3.43.73-6.79.17-9.59-1.91-1.39-1.03-2.22-2.57-3.52-3.65-2.87-2.38-5.3-2.11-8.36-.5-6.4,3.36-12.4,7.14-20,5.35-3.42-.8-6.19-2.67-8.63-5.14-.46-.47-.9-.98-1.33-1.5-1.28,2.13-2.39,4.36-3.32,6.69,1.82.9,3.56,1.64,4.71,2.17Z"/>
      <path class="cls-6" d="M279.75,130.9c-3.79-1.92-5.79-5.89-10.35-5.93-8.31-.07-14.14,8.53-23.06,7.37-2.92-.38-5.54-1.56-7.7-3.3-1.42,1.32-2.75,2.72-3.99,4.2,3.65,3.79,6.64,6.74,12.42,5.64,4.64-.88,8.14-4.05,12.36-5.9,3.08-1.36,6.47-1.97,9.67-.65,3.4,1.4,4.89,4.98,8.11,6.47,4.85,2.24,9.8-2.72,14.7-3.84,3.02-.69,6.18-.49,8.91,1.07,3.54,2.02,5.56,5.76,8.78,8.16,1.25.93,2.63,1.69,4.07,2.27-1.66-4.34-3.96-8.37-6.78-11.98-3.16-2.7-5.97-8.07-10.56-6.98-2.95.7-5.4,3.03-8.32,3.91-2.74.83-5.67.8-8.26-.51Z"/>
      <path class="cls-6" d="M262.87,119.17c3.58-1.41,7.45-2.04,11.16-.8,3.1,1.03,4.85,3.43,7.45,5.2,3.27,2.24,6.88.24,10.66-1.51-6.52-3.48-13.96-5.46-21.87-5.46-9.62,0-18.56,2.92-25.97,7.93,5.27,2.19,13.23-3.26,18.57-5.36Z"/>
      <path class="cls-6" d="M241.44,199.49c4.1-3.4,9.1-5.25,14.62-4.29,3.85.67,7.3,2.48,10.9,3.88,5.47,2.12,8.95,1.75,13.56-2.03,5.56-4.56,11.27-7.3,17.86-3.08,1.4.89,2.76,1.75,4.12,2.54,1-.96,1.96-1.97,2.87-3.02-4.37-2.65-8.58-6.05-13.42-6.07-4.24-.02-7.69,3.53-11.13,5.55-3.09,1.81-6.48,2.99-10.1,3-3.7.02-7.41-1.11-10.5-3.13-3.22-2.1-5.81-6.4-9.91-5.8-3.86.56-6.71,4.35-10.3,5.84-1.4.58-2.86.96-4.34,1.18,1.76,1.97,3.7,3.78,5.77,5.42Z"/>
      <path class="cls-6" d="M287.84,200.24c-6.58,4.22-10.43,8.98-18.93,6.94-7.23-1.74-14.28-7.59-21.23-3.51,6.69,3.73,14.39,5.86,22.59,5.86,9.78,0,18.85-3.03,26.33-8.19-2.69-1.84-5.43-3.25-8.76-1.11Z"/>
    </g>
    <path class="cls-3" d="M482.25,55.16c-4.4-7.49-11.07-13.5-18.46-17.97-7.63-4.61-16.4-7.96-25.27-9.03-5-.6-10.08-.43-15.07.22-4.99.65-9.64,1.79-14.05,4.27-4.22,2.38-8.08,5.49-11.72,8.66-3.2,2.79-6.06,6.01-8.34,9.6-4.77,7.5-6.63,16.55-6.06,25.36.65,9.98,4.07,19.76,9.23,28.29,4.73,7.82,11.29,13.95,19.76,17.53,8.86,3.74,18.79,4.43,28.11,2.12,8.98-2.23,17.72-6.5,23.8-13.61,5.8-6.78,9.83-15.29,11.9-23.95,2.17-9.07,1.83-18.99-2.78-27.27-4.33-7.78-12.07-13.6-19.92-17.49-8.17-4.04-17.1-6.45-26.22-5.09-9.46,1.41-19.2,5.56-26.11,12.27-3.29,3.2-6.13,7.01-7.82,11.3-1.59,4.03-1.91,8.54-1.62,12.82.59,8.62,3.31,17.6,7.97,24.92,4.65,7.31,11.51,12.69,19.48,15.96,9.01,3.69,18.44,3.78,27.23-.61,7.19-3.59,13.06-9.19,16.11-16.68,5.3-12.99,2.18-30.12-9.1-39.03-12.87-10.16-37.42-12.89-45.45,4.71-6.27,13.75.23,33.64,14.35,39.82,7.41,3.24,17.01,3.39,23.88-1.27,6.77-4.59,10.43-12.97,9.22-21.05-1.11-7.44-6.33-12.99-13.36-15.3-5.59-1.84-12.34-2.29-17.88-.04-6.74,2.74-8.89,9.17-7.74,16,1.27,7.51,6.99,14.28,14.84,15.02,6.72.64,14.27-3.27,13.63-10.83-.48-5.62-4.91-11.84-10.97-12.08-3.62-.15-6.71,2.09-7.42,5.71-.91,4.65,2.47,7.36,6.33,8.96,2.55,1.06,3.66-3.1,1.14-4.14-1.5-.62-3.34-1.48-3.33-3.36,0-1.43.84-2.6,2.26-2.83,2.04-.33,3.91.91,5.21,2.37,2.85,3.2,4.01,9-.74,10.99-6.41,2.69-12.84-.63-15.58-6.75-2.1-4.7-2.47-11.46,2.53-14.38,4.24-2.48,9.94-2.2,14.54-1.07,5.82,1.43,10.56,5.01,12.05,11.06,1.63,6.62-1.25,14.18-6.9,18.02-5.78,3.93-13.97,3.84-20.19.98-11.74-5.4-17.61-22.94-11.77-34.45,7.35-14.5,28.85-11.28,39.3-2.22,9.29,8.05,11.63,22.48,7.16,33.64-2.62,6.52-7.87,11.23-14.05,14.38-7.65,3.9-15.82,3.66-23.68.5-6.92-2.77-13.03-7.47-17.12-13.73-4.14-6.32-6.72-14.05-7.53-21.55-.4-3.74-.4-7.6.62-11.24,1.07-3.87,3.44-7.31,6.16-10.22,5.78-6.18,13.76-9.88,21.93-11.77,8.08-1.87,15.83-.59,23.41,2.59,7.22,3.02,14.21,7.61,19.08,13.81,10.36,13.17,5.5,32.37-2.89,45.23-2.05,3.14-4.47,6.02-7.33,8.46-3.19,2.72-7.02,4.57-10.89,6.12-8.14,3.25-16.85,4.42-25.47,2.48-7.61-1.72-14.61-5.63-19.83-11.46-5.56-6.22-9.37-14.5-11.53-22.49-2.18-8.04-2.61-16.65-.2-24.69,2.24-7.45,6.98-13.48,12.9-18.4,3.17-2.64,6.43-5.2,10.07-7.18,3.93-2.14,8.19-3.05,12.61-3.55,8.52-.97,16.75-.13,24.85,2.69,7.21,2.51,14.13,6.31,19.89,11.34,5.66,4.94,10.64,11.27,12.25,18.74.9,4.14,1,8.42,1.01,12.64,0,4.45-.26,8.66-1.53,12.96-2.52,8.55-6.59,16.14-12.51,22.8-5.21,5.86-11.57,12.03-18.9,15.12-7.03,2.96-15.05,3.32-22.53,2.25-7.48-1.07-15.3-3.41-21.58-7.7-3.36-2.29-6.26-5.21-8.89-8.29-2.64-3.11-5.34-6.47-7.33-10.05-1.92-3.45-2.48-7.33-3.95-10.94-1.25-3.09-3.89-6.42-3.71-9.88.14-2.76-4.15-2.76-4.3,0-.23,4.38,2.83,7.97,4.2,11.91,1.59,4.55,2.56,9.08,5.33,13.14,5.17,7.59,11.22,15.14,19.4,19.63,7.58,4.17,16.52,6.4,25.11,6.91,8.58.52,17.65-.95,24.97-5.68,7.98-5.15,15.11-12.31,20.54-20.08,2.7-3.86,4.62-7.99,6.33-12.37,2-5.11,3.51-10.4,3.62-15.92.17-9.11.02-18.49-4.72-26.56Z"/>
    <path class="cls-2" d="M420.35,158.15c-.55-3.62-1.57-7.19-3.05-10.61-.83-1.92-1.82-3.77-2.92-5.55.03-.52-.31-.98-.79-1.19-.99-1.48-2.04-2.91-3.19-4.26-.79-.92-2.63-.11-2.22,1.13.51,1.56.96,3.14,1.37,4.74-2.36,1.41-4.57,2.99-6.65,4.73-.44-1.9-.97-3.79-1.61-5.66-1.13-3.32-2.55-6.52-4.25-9.57.76-1.15,1.52-2.3,2.29-3.45.77-1.15-.7-2.31-1.77-1.77-.95.48-1.87.98-2.79,1.5-.97-1.45-2-2.86-3.11-4.22-.77-.95-2.64-.1-2.22,1.13.6,1.77,1.13,3.57,1.61,5.37-3.8,2.53-7.3,5.44-10.45,8.67-1.04-2.92-2.37-5.73-3.98-8.36,2.11-2.14,4.35-4.16,6.69-6.05,1.07-.86-.11-2.43-1.26-2.16-3.12.73-6.14,1.84-9,3.24-.5-.59-1.01-1.16-1.54-1.71-.85-.89-2.54-.15-2.22,1.13.19.77.37,1.55.54,2.33-4.34,2.59-8.26,5.9-11.58,9.72-.54-1.08-1.13-2.13-1.78-3.16-.26-.42-.75-.62-1.23-.63-.43-.57-1.29-.85-1.96-.21-4.02,3.83-7.21,8.37-9.47,13.31-.67.23-1.22.97-.87,1.82.02.04.03.08.05.12-3.13,7.8-4.02,16.46-2.3,24.88.28,1.39.65,2.77,1.07,4.12-.03.38.1.74.33,1.01.82,2.43,1.86,4.79,3.09,7.05.58,1.07,2.55.65,2.41-.65-.35-3.2-.49-6.42-.43-9.64,6.67-7.92,8.99-18.7,9.43-28.92.04-.95.06-1.91.08-2.86.29-.43.6-.84.9-1.26,1.09,2.97,1.78,6.05,2.17,9.17-4.12,9.73-5.94,20.38-4.63,31.19.03.23.07.46.1.7-1.08,3.2-2.26,6.36-3.47,9.52-.49,1.28,1.15,2.13,2.09,1.37,1.07-.86,2.08-1.77,3.06-2.7,1,3.52,2.33,6.95,4.02,10.23.56,1.09,2.56.64,2.41-.65-.66-5.52-.76-11.09-.3-16.61,7.03-9.69,10.7-21.62,11.42-33.67,1.53-2.3,3.2-4.51,5-6.61.79,3.06,1.29,6.2,1.52,9.35.03.34.04.67.06,1.01-4.86,10.75-7.74,22.15-6.19,34.28-1.75,4.97-3.69,9.87-5.65,14.76-.51,1.28,1.16,2.12,2.09,1.37,2.21-1.76,4.27-3.65,6.19-5.66.87,2.24,1.93,4.4,3.21,6.46.65,1.05,2.45.67,2.41-.65-.15-4.4.01-8.85.49-13.26,6.92-9.83,11.07-21.48,12.33-33.52,1.6-2.16,3.36-4.23,5.3-6.17.25,1.64.44,3.28.55,4.94.03.55.05,1.1.07,1.65-4.09,8.46-6.92,17.43-6.78,27.01.02,1.07.07,2.13.17,3.19-2.58,5.36-5.84,10.38-9.59,14.98-.87,1.07.61,2.36,1.68,1.85,3.71-1.73,7.12-4.02,10.17-6.72.42,1.05,2.22,1.34,2.48-.02.18-.96.37-1.93.56-2.91,2.87-3.04,5.34-6.47,7.34-10.15,1.01-1.87,1.9-3.79,2.67-5.76-.1,2.59.07,5.2.53,7.79-.85,1.36,1.26,2.71,2.19,1.36,5.94-8.65,8.44-19.14,7.33-29.36.48-.66.29-1.49-.23-1.9ZM417.8,158.8c-1.23.76-2.39,1.6-3.48,2.5.06-1.89.03-3.78-.08-5.67-.22-3.64-.73-7.25-1.49-10.81.04-.07.09-.14.13-.2,2.5,4.4,4.16,9.22,4.91,14.18ZM411.61,163.82c-6.02,6.29-9.59,14.82-11.74,23.23-.52,2.05-.98,4.11-1.4,6.17-.28-1.32-.46-2.64-.6-3.96,4.34-9.38,6.71-19.6,6.52-29.86.9-1.87,1.86-3.7,2.86-5.48,1.12-2,2.3-3.97,3.51-5.91.91,5.22,1.24,10.53.85,15.81ZM397.7,183.19c.28-5.97,1.78-11.9,3.97-17.58-.49,6.01-1.86,11.93-3.97,17.58ZM393.47,157.34c-6.27,8.72-10.26,19.19-11.93,29.83-.2,1.28-.36,2.56-.51,3.84-.8,1.1-1.64,2.18-2.51,3.22-.46-1.7-.81-3.44-1.06-5.19,3.82-11.1,6.65-22.6,6.15-34.1,1.64-3.56,3.49-7.02,5.46-10.39,1.19-2.03,2.43-4.04,3.69-6.03,1,6.21,1.26,12.54.7,18.82ZM376.91,126.95c-.58.55-1.15,1.11-1.71,1.68-.17-.24-.33-.48-.51-.71.73-.34,1.47-.67,2.22-.97ZM372.96,129.94c.14.2.26.41.4.61-.08.09-.16.18-.25.26-.05-.29-.1-.59-.15-.88ZM354.06,136.21c.04,2.16.06,4.36.02,6.59-2.72,4.13-4.84,8.63-6.37,13.34-.38-2.58-1.03-5.13-1.95-7.59.64-1.5,1.37-2.96,2.2-4.38,1.7-2.9,3.76-5.55,6.1-7.95ZM344.32,152.43c1.91,6.92,1.61,14.43-.9,21.17-1.55-6.99-1.25-14.32.9-21.17ZM347.42,170.68c.51-5.9,1.8-11.72,4-17.26.71-1.78,1.54-3.51,2.45-5.2-.54,8-2.16,15.92-6.44,22.46ZM361.57,146.67c-.52-2.3-1.23-4.56-2.13-6.74,2.67-3.21,5.73-6.1,9.16-8.49.58-.4,1.18-.79,1.78-1.16.19,1.01.37,2.03.53,3.06-3.6,4.3-6.71,8.98-9.22,13.95-.04-.21-.07-.41-.12-.62ZM371.88,150.19c-5.78,9.04-9.55,19.41-10.99,30.15-.15,1.08-.27,2.17-.37,3.26-.7.93-1.44,1.83-2.2,2.71-.17-.9-.34-1.81-.47-2.72,3.44-10.36,5.82-21.14,4.56-31.96,2.18-4.98,4.99-9.69,8.3-14.02.22-.28.46-.55.68-.83.52,4.45.71,8.95.5,13.4ZM360.12,157.67c-.02,6.36-1.14,12.8-2.83,18.94-.06-3.13.13-6.26.58-9.35.48-3.26,1.24-6.47,2.24-9.6ZM356.04,188.78c.03-.09.06-.18.1-.27.01.05.02.09.03.14-.04.04-.08.09-.13.14ZM360.2,193.48c-.45-1.33-.84-2.69-1.18-4.05.42-.46.82-.93,1.23-1.4-.07,1.82-.09,3.63-.04,5.45ZM363.72,178.8c.7-4.43,1.8-8.81,3.3-13.06,1.18-3.36,2.66-6.6,4.35-9.73-1.04,7.98-3.47,15.73-7.65,22.79ZM374.6,146.24c0-1.24-.03-2.48-.1-3.71-.15-2.85-.45-5.68-.86-8.49.37-.43.77-.83,1.15-1.24,1.58,2.69,2.84,5.55,3.81,8.53-1.41,1.58-2.74,3.22-4,4.92ZM381.5,141.94c.98-1.04,1.98-2.05,3.02-3.02,2.26-2.1,4.66-4.02,7.2-5.75.13.55.25,1.1.36,1.65-3.16,4.93-6.22,10.01-8.88,15.24-.35-2.71-.91-5.42-1.7-8.13ZM381.04,161.14c-.37,7.18-1.93,14.29-4.03,21.18,0-2.44.16-4.89.48-7.3.64-4.77,1.89-9.39,3.55-13.88ZM373.58,199.55c.74-1.88,1.47-3.78,2.17-5.7.22.91.47,1.81.75,2.7-.95,1.03-1.91,2.04-2.92,3ZM380.47,199.8c-.38-.87-.72-1.74-1.03-2.63.41-.47.81-.93,1.2-1.41-.08,1.35-.14,2.69-.17,4.04ZM384.48,185.76c1.47-7.99,4.13-15.72,8.25-22.65-1.37,7.97-4.17,15.68-8.25,22.65ZM396.26,153.8c.13-2.94.09-5.9-.13-8.85-.24-3.24-.68-6.46-1.3-9.64.2-.31.41-.62.61-.93,2.43,4.63,4.18,9.61,5.24,14.73-1.57,1.47-3.03,3.05-4.41,4.69ZM403.48,150.04c1.79-1.58,3.68-3.02,5.67-4.33-1.76,2.83-3.47,5.72-5.06,8.66-.15-1.45-.35-2.89-.61-4.34ZM395.85,193.31c.21,1.04.46,2.08.75,3.1-1.61,1.49-3.32,2.87-5.14,4.09,1.6-2.31,3.06-4.72,4.39-7.19ZM401.64,190.87c1.85-8.06,4.53-16.17,9.46-22.54-.05.34-.1.68-.16,1.02-1.34,7.77-4.51,15.26-9.3,21.52ZM414.1,164.96c.24-.23.46-.47.71-.7-.28.53-.54,1.07-.8,1.62.03-.31.06-.61.09-.92ZM416.23,177.69c-.8,2.39-1.83,4.68-3.05,6.87-.65-7.36,1.15-14.91,5.05-21.18.19,4.8-.46,9.65-2.01,14.31Z"/>
  </g>
</svg>